# xmcd
#
# Track frame offsets:
#	150
#	24597
#	43292
#	57067
#	73760
#	87458
#	140708
#	159303
#	175565
#	191228
#	211660
#	231645
#	253513
#	271923
#
# Disc length: 4015 seconds
#
# Revision: 0
# Processed by: cddbd v1.5.2PL0 Copyright (c) Steve Scherf et al.
# Submitted via: dBpowerAMP V4.0
#
DISCID=cb0fad0e
DTITLE=DMC 40 Aþk Þarkýsý Disc 1 - 40 Aþk Þarkýsý Disc 1
DYEAR=2007
DGENRE=Ballad
TTITLE0=Sezen Aksu-Keskin Býçak
TTITLE1=Nükhet Duru-Mekankoli
TTITLE2=Alpay-Eylülde Guel
TTITLE3=Ferhat Göçer-Aþklarýn En güzeli
TTITLE4=Seferad-Ne Farkeder
TTITLE5=Kenan Doðulu-Tutamýyorum Zamaný
TTITLE6=Gökhan Özen-Kalbim Seninle
TTITLE7=Bulutsuzluk Özlemi-Sözlerimi Geri Alamam
TTITLE8=Mirkelam-Unutulmaz
TTITLE9=Yüksek Sadakat-Pervane
TTITLE10=Haluk Levent-Dert Olur
TTITLE11=Hande Yener-Güvenemiyorum
TTITLE12=Yeþim Salkým-Erguvan
TTITLE13=Ahmet Koç-Hotel California
EXTD=
EXTT0=
EXTT1=
EXTT2=
EXTT3=
EXTT4=
EXTT5=
EXTT6=
EXTT7=
EXTT8=
EXTT9=
EXTT10=
EXTT11=
EXTT12=
EXTT13=
PLAYORDER=
